<svg width="494" height="471" viewBox="0 0 494 471" fill="none" xmlns="http://www.w3.org/2000/svg">
<path opacity="0.2" fill-rule="evenodd" clip-rule="evenodd" d="M633.657 0V37.964H669.77V38.5813H633.657L633.657 87.348H669.77V87.9653H633.657L633.657 136.732H669.77V137.349H633.657V186.116H669.77V186.733H633.657L633.657 235.5H669.77V236.117H633.657L633.657 284.884H669.77V285.501H633.657V334.268H669.77V334.885H633.657L633.657 383.652H669.77V384.269H633.657L633.657 433.036H669.77V433.653H633.657V471H633.04L633.04 433.653H584.273V471H583.656V433.653H534.889V471H534.272V433.653H485.505V471H484.888V433.653H436.121V471H435.504V433.653H386.737V471H386.12V433.653H337.353V471H336.736V433.653H287.969V471H287.352V433.653H238.585V471H237.968V433.653H189.201V471H188.584V433.653H139.817V471H139.2V433.653H90.433V471H89.8157V433.653H41.049V471H40.4317V433.653H-0.00109863V433.036H40.4317V384.269H-0.00109863V383.652H40.4317V334.885H-0.00109863V334.268H40.4317V285.501H-0.00109863V284.884H40.4317V236.117H-0.00109863V235.5H40.4317V186.733H-0.00109863V186.116H40.4317V137.349H-0.00109863V136.732H40.4317V87.9653H-0.00109863V87.348H40.4317V38.5813H-0.00109863V37.964H40.4317V0H41.049V37.964H89.8157V0H90.433V37.964H139.2V0H139.817V37.964H188.584V0H189.201V37.964H237.968V0H238.585V37.964H287.352V0H287.969V37.964H336.736V0H337.353V37.964H386.12V0H386.737V37.964H435.504V0H436.121V37.964H484.888V0H485.505V37.964H534.272V0H534.889V37.964H583.656V0H584.273V37.964H633.04L633.04 0H633.657ZM89.8157 433.036H41.049V384.269H89.8157V433.036ZM89.8157 383.652H41.049V334.885H89.8157V383.652ZM89.8157 334.268H41.049V285.501H89.8157V334.268ZM89.8157 284.884H41.049V236.117H89.8157V284.884ZM89.8157 235.5H41.049V186.733H89.8157V235.5ZM89.8157 186.116H41.049V137.349H89.8157V186.116ZM89.8157 136.732H41.049V87.9653H89.8157V136.732ZM89.8157 87.348H41.049V38.5813H89.8157V87.348ZM90.433 38.5813V87.348H139.2V38.5813H90.433ZM90.433 87.9653V136.732H139.2V87.9653H90.433ZM90.433 137.349V186.116H139.2V137.349H90.433ZM90.433 186.733V235.5H139.2V186.733H90.433ZM90.433 236.117V284.884H139.2V236.117H90.433ZM90.433 285.501V334.268H139.2V285.501H90.433ZM90.433 334.885V383.652H139.2V334.885H90.433ZM90.433 384.269V433.036H139.2V384.269H90.433ZM188.584 433.036H139.817V384.269H188.584V433.036ZM188.584 383.652H139.817V334.885H188.584V383.652ZM188.584 334.268H139.817V285.501H188.584V334.268ZM188.584 235.5H139.817V186.733H188.584V235.5ZM188.584 186.116H139.817V137.349H188.584V186.116ZM188.584 136.732H139.817V87.9653H188.584V136.732ZM188.584 87.348H139.817V38.5813H188.584V87.348ZM189.201 38.5813V87.348H237.968V38.5813H189.201ZM189.201 87.9653V136.732H237.968V87.9653H189.201ZM189.201 137.349V186.116H237.968V137.349H189.201ZM189.201 186.733V235.5H237.968V186.733H189.201ZM189.201 236.117V284.884H237.968V236.117H189.201ZM189.201 285.501V334.268H237.968V285.501H189.201ZM189.201 334.885V383.652H237.968V334.885H189.201ZM189.201 384.269V433.036H237.968V384.269H189.201ZM287.352 383.652H238.585V334.885H287.352V383.652ZM287.352 334.268H238.585V285.501H287.352V334.268ZM287.352 284.884H238.585V236.117H287.352V284.884ZM287.352 235.5H238.585V186.733H287.352L287.352 235.5ZM287.352 186.116H238.585V137.349H287.352V186.116ZM287.352 136.732H238.585V87.9653H287.352V136.732ZM287.352 87.348H238.585V38.5813H287.352V87.348ZM287.969 38.5813V87.348H336.736V38.5813H287.969ZM287.969 87.9653V136.732H336.736V87.9653H287.969ZM287.969 137.349V186.116H336.736V137.349H287.969ZM287.969 186.733L287.969 235.5H336.736L336.736 186.733H287.969ZM287.969 236.117V284.884H336.736V236.117H287.969ZM287.969 285.501V334.268H336.736V285.501H287.969ZM287.969 334.885V383.652H336.736V334.885H287.969ZM287.969 384.269V433.036H336.736V384.269H287.969ZM386.12 433.036H337.353V384.269H386.12V433.036ZM386.12 383.652H337.353V334.885H386.12V383.652ZM386.12 334.268H337.353V285.501H386.12V334.268ZM386.12 284.884H337.353V236.117H386.12V284.884ZM386.12 235.5H337.353L337.353 186.733H386.12V235.5ZM386.12 186.116H337.353V137.349H386.12V186.116ZM386.12 136.732H337.353V87.9653H386.12V136.732ZM386.12 87.348H337.353V38.5813H386.12V87.348ZM386.737 38.5813V87.348H435.504V38.5813H386.737ZM386.737 87.9653V136.732H435.504L435.504 87.9653H386.737ZM386.737 186.733V235.5H435.504V186.733H386.737ZM386.737 236.117V284.884H435.504V236.117H386.737ZM386.737 285.501V334.268H435.504V285.501H386.737ZM386.737 334.885V383.652H435.504L435.504 334.885H386.737ZM386.737 384.269V433.036H435.504V384.269H386.737ZM484.888 433.036H436.121V384.269H484.888V433.036ZM484.888 383.652H436.121V334.885H484.888L484.888 383.652ZM484.888 334.268H436.121V285.501H484.888V334.268ZM484.888 284.884H436.121V236.117H484.888V284.884ZM484.888 235.5H436.121V186.733H484.888V235.5ZM484.888 186.116H436.121V137.349H484.888V186.116ZM484.888 136.732H436.121V87.9653H484.888L484.888 136.732ZM484.888 87.348H436.121V38.5813H484.888V87.348ZM485.505 38.5813V87.348H534.272V38.5813H485.505ZM485.505 87.9653V136.732H534.272L534.272 87.9653H485.505ZM485.505 137.349V186.116H534.272V137.349H485.505ZM485.505 186.733V235.5H534.272V186.733H485.505ZM485.505 236.117V284.884H534.272V236.117H485.505ZM485.505 285.501V334.268H534.272V285.501H485.505ZM485.505 334.885V383.652H534.272L534.272 334.885H485.505ZM485.505 384.269V433.036H534.272V384.269H485.505ZM583.656 433.036H534.889V384.269H583.656L583.656 433.036ZM583.656 383.652H534.889V334.885H583.656V383.652ZM583.656 334.268H534.889V285.501H583.656V334.268ZM583.656 284.884H534.889V236.117H583.656V284.884ZM583.656 235.5H534.889L534.889 186.733H583.656V235.5ZM583.656 186.116H534.889V137.349H583.656V186.116ZM583.656 136.732H534.889V87.9653H583.656V136.732ZM583.656 87.348H534.889V38.5813H583.656L583.656 87.348ZM584.273 38.5813L584.273 87.348H633.04V38.5813H584.273ZM584.273 87.9653V136.732H633.04L633.04 87.9653H584.273ZM584.273 137.349L584.273 186.116H633.04L633.04 137.349H584.273ZM584.273 186.733V235.5H633.04V186.733H584.273ZM584.273 236.117V284.884H633.04V236.117H584.273ZM584.273 285.501L584.273 334.268H633.04L633.04 285.501H584.273ZM584.273 334.885V383.652H633.04L633.04 334.885H584.273ZM584.273 384.269L584.273 433.036H633.04V384.269H584.273Z" fill="url(#paint0_linear_1248_1431)"/>
<defs>
<linearGradient id="paint0_linear_1248_1431" x1="617.299" y1="385.813" x2="138.274" y2="84.8788" gradientUnits="userSpaceOnUse">
<stop stop-color="white"/>
<stop offset="1" stop-color="white"/>
</linearGradient>
</defs>
</svg>
