<svg width="615" height="471" viewBox="0 0 615 471" fill="none" xmlns="http://www.w3.org/2000/svg">
<path opacity="0.1" fill-rule="evenodd" clip-rule="evenodd" d="M-19.4465 471V433.036H-55.5586V432.419H-19.4465L-19.4465 383.652H-55.5586V383.035H-19.4465L-19.4465 334.268H-55.5586V333.651H-19.4465V284.884H-55.5586V284.267H-19.4465L-19.4465 235.5H-55.5586V234.883H-19.4465L-19.4465 186.116H-55.5586V185.499H-19.4465V136.732H-55.5586V136.115H-19.4465L-19.4465 87.348H-55.5586V86.7307H-19.4465L-19.4465 37.964H-55.5586V37.3467H-19.4465V0H-18.8292L-18.8292 37.3467H29.9375V0H30.5548V37.3467H79.3215V0H79.9388V37.3467H128.706V0H129.323V37.3467H178.09V0H178.707V37.3467H227.474V0H228.091V37.3467H276.858V0H277.475V37.3467H326.242V0H326.859V37.3467H375.626V0H376.243V37.3467H425.01V0H425.627V37.3467H474.394V0H475.011V37.3467H523.778V0H524.395V37.3467H573.162V0H573.779V37.3467H614.212V37.964H573.779V86.7307H614.212V87.348H573.779V136.115H614.212V136.732H573.779V185.499H614.212V186.116H573.779V234.883H614.212V235.5H573.779V284.267H614.212V284.884H573.779V333.651H614.212V334.268H573.779V383.035H614.212V383.652H573.779V432.419H614.212V433.036H573.779V471H573.162V433.036H524.395V471H523.778V433.036H475.011V471H474.394V433.036H425.627V471H425.01V433.036H376.243V471H375.626V433.036H326.859V471H326.242V433.036H277.475V471H276.858V433.036H228.091V471H227.474V433.036H178.707V471H178.09V433.036H129.323V471H128.706V433.036H79.9388V471H79.3215V433.036H30.5548V471H29.9375V433.036H-18.8292L-18.8292 471H-19.4465ZM524.395 37.964H573.162V86.7307H524.395V37.964ZM524.395 87.348H573.162V136.115H524.395V87.348ZM524.395 136.732H573.162V185.499H524.395V136.732ZM524.395 186.116H573.162V234.883H524.395V186.116ZM524.395 235.5H573.162V284.267H524.395V235.5ZM524.395 284.884H573.162V333.651H524.395V284.884ZM524.395 334.268H573.162V383.035H524.395V334.268ZM524.395 383.652H573.162V432.419H524.395V383.652ZM523.778 432.419V383.652H475.011V432.419H523.778ZM523.778 383.035V334.268H475.011V383.035H523.778ZM523.778 333.651V284.884H475.011V333.651H523.778ZM523.778 284.267V235.5H475.011V284.267H523.778ZM523.778 234.883V186.116H475.011V234.883H523.778ZM523.778 185.499V136.732H475.011V185.499H523.778ZM523.778 136.115V87.348H475.011V136.115H523.778ZM523.778 86.7307V37.964H475.011V86.7307H523.778ZM425.627 37.964H474.394V86.7307H425.627V37.964ZM425.627 87.348H474.394V136.115H425.627V87.348ZM425.627 136.732H474.394V185.499H425.627V136.732ZM425.627 235.5H474.394V284.267H425.627V235.5ZM425.627 284.884H474.394V333.651H425.627V284.884ZM425.627 334.268H474.394V383.035H425.627V334.268ZM425.627 383.652H474.394V432.419H425.627V383.652ZM425.01 432.419V383.652H376.243V432.419H425.01ZM425.01 383.035V334.268H376.243V383.035H425.01ZM425.01 333.651V284.884H376.243V333.651H425.01ZM425.01 284.267V235.5H376.243V284.267H425.01ZM425.01 234.883V186.116H376.243V234.883H425.01ZM425.01 185.499V136.732H376.243V185.499H425.01ZM425.01 136.115V87.348H376.243V136.115H425.01ZM425.01 86.7307V37.964H376.243V86.7307H425.01ZM326.859 87.348H375.626V136.115H326.859V87.348ZM326.859 136.732H375.626V185.499H326.859V136.732ZM326.859 186.116H375.626V234.883H326.859V186.116ZM326.859 235.5H375.626V284.267H326.859L326.859 235.5ZM326.859 284.884H375.626V333.651H326.859V284.884ZM326.859 334.268H375.626V383.035H326.859V334.268ZM326.859 383.652H375.626V432.419H326.859V383.652ZM326.242 432.419V383.652H277.475V432.419H326.242ZM326.242 383.035V334.268H277.475V383.035H326.242ZM326.242 333.651V284.884H277.475V333.651H326.242ZM326.242 284.267L326.242 235.5H277.475L277.475 284.267H326.242ZM326.242 234.883V186.116H277.475V234.883H326.242ZM326.242 185.499V136.732H277.475V185.499H326.242ZM326.242 136.115V87.348H277.475V136.115H326.242ZM326.242 86.7307V37.964H277.475V86.7307H326.242ZM228.091 37.964H276.858V86.7307H228.091V37.964ZM228.091 87.348H276.858V136.115H228.091V87.348ZM228.091 136.732H276.858V185.499H228.091V136.732ZM228.091 186.116H276.858V234.883H228.091V186.116ZM228.091 235.5H276.858L276.858 284.267H228.091V235.5ZM228.091 284.884H276.858V333.651H228.091V284.884ZM228.091 334.268H276.858V383.035H228.091V334.268ZM228.091 383.652H276.858V432.419H228.091V383.652ZM227.474 432.419V383.652H178.707V432.419H227.474ZM227.474 383.035V334.268H178.707L178.707 383.035H227.474ZM227.474 284.267V235.5H178.707V284.267H227.474ZM227.474 234.883V186.116H178.707V234.883H227.474ZM227.474 185.499V136.732H178.707V185.499H227.474ZM227.474 136.115V87.348H178.707L178.707 136.115H227.474ZM227.474 86.7307V37.964H178.707V86.7307H227.474ZM129.323 37.964H178.09V86.7307H129.323V37.964ZM129.323 87.348H178.09V136.115H129.323L129.323 87.348ZM129.323 136.732H178.09V185.499H129.323V136.732ZM129.323 186.116H178.09V234.883H129.323V186.116ZM129.323 235.5H178.09V284.267H129.323V235.5ZM129.323 284.884H178.09V333.651H129.323V284.884ZM129.323 334.268H178.09V383.035H129.323L129.323 334.268ZM129.323 383.652H178.09V432.419H129.323V383.652ZM128.706 432.419V383.652H79.9388V432.419H128.706ZM128.706 383.035V334.268H79.9388L79.9388 383.035H128.706ZM128.706 333.651V284.884H79.9388V333.651H128.706ZM128.706 284.267V235.5H79.9388V284.267H128.706ZM128.706 234.883V186.116H79.9388V234.883H128.706ZM128.706 185.499V136.732H79.9388V185.499H128.706ZM128.706 136.115V87.348H79.9388L79.9388 136.115H128.706ZM128.706 86.7307V37.964H79.9388V86.7307H128.706ZM30.5548 37.964H79.3215V86.7307H30.5548L30.5548 37.964ZM30.5548 87.348H79.3215V136.115H30.5548V87.348ZM30.5548 136.732H79.3215V185.499H30.5548V136.732ZM30.5548 186.116H79.3215V234.883H30.5548V186.116ZM30.5548 235.5H79.3215L79.3215 284.267H30.5548V235.5ZM30.5548 284.884H79.3215V333.651H30.5548V284.884ZM30.5548 334.268H79.3215V383.035H30.5548V334.268ZM30.5548 383.652H79.3215V432.419H30.5548L30.5548 383.652ZM29.9375 432.419L29.9375 383.652H-18.8292V432.419H29.9375ZM29.9375 383.035V334.268H-18.8292L-18.8292 383.035H29.9375ZM29.9375 333.651L29.9375 284.884H-18.8292L-18.8292 333.651H29.9375ZM29.9375 284.267V235.5H-18.8292V284.267H29.9375ZM29.9375 234.883V186.116H-18.8292V234.883H29.9375ZM29.9375 185.499L29.9375 136.732H-18.8292L-18.8292 185.499H29.9375ZM29.9375 136.115V87.348H-18.8292L-18.8292 136.115H29.9375ZM29.9375 86.7307L29.9375 37.964H-18.8292V86.7307H29.9375Z" fill="url(#paint0_linear_1248_1493)"/>
<defs>
<linearGradient id="paint0_linear_1248_1493" x1="-3.08809" y1="85.1874" x2="475.937" y2="386.121" gradientUnits="userSpaceOnUse">
<stop stop-color="white"/>
<stop offset="1" stop-color="white" stop-opacity="0"/>
</linearGradient>
</defs>
</svg>
